<svg width="17" height="17" viewBox="0 0 17 17" fill="none" xmlns="http://www.w3.org/2000/svg">
<path d="M8.24341 1.18066C8.51886 1.20311 8.77445 1.29117 9.00122 1.42969L9.11255 1.50293V1.50391C9.43563 1.73485 9.64639 2.04992 9.76782 2.38965L9.77661 2.41309L9.78345 2.4375L10.6721 5.37793H13.3342C13.6816 5.37793 14.0208 5.4754 14.3147 5.68164L14.4377 5.77734L14.4397 5.77832C14.6515 5.95875 14.8299 6.18286 14.9495 6.45117L14.9973 6.56934L15.0383 6.69922C15.122 7.00238 15.1168 7.30755 15.051 7.59277C14.9531 8.01678 14.7025 8.35105 14.3694 8.58105L14.3704 8.58203L12.2004 10.1221L13.0725 12.9502H13.0715C13.1968 13.3287 13.2028 13.7502 13.0178 14.1553L13.0168 14.1572C12.879 14.4569 12.6699 14.7212 12.386 14.9199C12.0915 15.126 11.7576 15.2282 11.4143 15.2412L11.4153 15.2422L11.4124 15.2412V15.2422L11.4114 15.2412C10.992 15.257 10.6164 15.1155 10.3118 14.875V14.877L8.10376 13.1904L5.89575 14.877L5.89478 14.875C5.59005 15.1154 5.21463 15.2573 4.79517 15.2412V15.2422L4.79419 15.2412L4.79224 15.2422V15.2412C4.4493 15.228 4.11574 15.1258 3.82153 14.9199C3.53707 14.7208 3.32804 14.4559 3.19067 14.1553V14.1543C3.00558 13.7499 3.00974 13.3288 3.13501 12.9502L4.00513 10.1221L1.83716 8.58203L1.83813 8.58105C1.50493 8.35106 1.25444 8.01681 1.15649 7.59277C1.08127 7.26679 1.08462 6.91479 1.21021 6.56934L1.25806 6.45117C1.37765 6.18286 1.55605 5.95875 1.76782 5.77832L1.76978 5.77734C2.09007 5.50574 2.47623 5.37793 2.87329 5.37793H5.5354L6.42407 2.4375L6.43091 2.41309L6.43872 2.38965C6.56013 2.04982 6.77181 1.73491 7.09497 1.50391V1.50293C7.38433 1.2964 7.72779 1.1748 8.10376 1.1748L8.24341 1.18066Z" fill="#6E7BFF" stroke="black" stroke-width="2"/>
</svg>
