<svg width="62" height="38" viewBox="0 0 62 38" fill="none" xmlns="http://www.w3.org/2000/svg">
<path d="M46.5391 38C44.9297 38 43.7031 37.7969 42.8594 37.3906C42.0312 36.9844 41.4688 36.3203 41.1719 35.3984C40.8906 34.4766 40.75 33.25 40.75 31.7188V8.14062C40.75 7.6875 40.8281 7.34375 40.9844 7.10938C41.6875 6.07812 42.6719 4.99219 43.9375 3.85156C44.1719 3.66406 44.375 3.57031 44.5469 3.57031C44.7344 3.57031 44.9297 3.66406 45.1328 3.85156C45.8203 4.44531 46.3984 5.01563 46.8672 5.5625C47.3359 6.09375 47.7422 6.60938 48.0859 7.10938C48.2422 7.35938 48.3203 7.70312 48.3203 8.14062V28.9297C48.3203 29.9766 48.5078 30.7266 48.8828 31.1797C49.2578 31.6328 49.9609 31.8594 50.9922 31.8594L58.1875 31.8359C58.5625 31.8359 58.8438 31.8984 59.0312 32.0234C59.4375 32.3047 59.8594 32.6406 60.2969 33.0312C60.7344 33.4219 61.1953 33.8906 61.6797 34.4375C61.8359 34.6406 61.9141 34.8047 61.9141 34.9297C61.9141 35.0703 61.8359 35.2266 61.6797 35.3984C61.1953 35.9453 60.7344 36.4141 60.2969 36.8047C59.8594 37.1953 59.4375 37.5312 59.0312 37.8125C58.8125 37.9375 58.5312 38 58.1875 38H46.5391Z" fill="white"/>
<path d="M36.8438 6.24219C37.7031 7.44531 38.5781 9 39.4688 10.9062C40.375 12.7969 41.25 14.875 42.0938 17.1406C42.9375 19.4062 43.6953 21.7266 44.3672 24.1016C45.0547 26.4609 45.6172 28.7344 46.0547 30.9219C46.4922 33.1094 46.7422 35.0547 46.8047 36.7578C46.8203 37.5859 46.4453 38 45.6797 38H40.0078C39.2734 38 38.8906 37.6328 38.8594 36.8984C38.7969 35.1484 38.5156 33.0234 38.0156 30.5234H25.2188C24.7812 32.9609 24.5312 35.0859 24.4688 36.8984C24.4375 37.6328 24.0391 38 23.2734 38H17.7188C17.4375 38 17.2031 37.9219 17.0156 37.7656C16.8281 37.5938 16.7422 37.3047 16.7578 36.8984C16.8359 35.1641 17.0859 33.1953 17.5078 30.9922C17.9453 28.7734 18.5078 26.4766 19.1953 24.1016C19.8828 21.7266 20.6484 19.4062 21.4922 17.1406C22.3359 14.8594 23.2109 12.7734 24.1172 10.8828C25.0234 8.99219 25.9062 7.44531 26.7656 6.24219C27.2188 5.60156 27.6953 5.13281 28.1953 4.83594C28.7109 4.53906 29.3438 4.39062 30.0938 4.39062H33.4688C34.2344 4.39062 34.875 4.53906 35.3906 4.83594C35.9062 5.13281 36.3906 5.60156 36.8438 6.24219ZM31.5469 11.7969C30.5156 13.4375 29.5703 15.3984 28.7109 17.6797C27.8516 19.9609 27.1094 22.3047 26.4844 24.7109H36.6562C36 22.3047 35.2422 19.9609 34.3828 17.6797C33.5234 15.3984 32.625 13.4375 31.6875 11.7969H31.5469Z" fill="#766CFF"/>
<path d="M18.7031 36.7578C18.7031 37.2266 18.6016 37.5547 18.3984 37.7422C18.2109 37.9141 17.8828 38 17.4141 38H12.4219C11.9531 38 11.6172 37.9141 11.4141 37.7422C11.2266 37.5547 11.1328 37.2266 11.1328 36.7578V26.1875L6.46875 20.7734C5.35938 19.4766 4.42188 18.3125 3.65625 17.2812C2.90625 16.25 2.34375 15.1875 1.96875 14.0938C1.59375 12.9844 1.40625 11.6875 1.40625 10.2031V8.14062C1.40625 7.6875 1.48438 7.34375 1.64062 7.10938C2.34375 6.07812 3.32812 4.99219 4.59375 3.85156C4.82812 3.66406 5.03906 3.57031 5.22656 3.57031C5.41406 3.57031 5.60938 3.66406 5.8125 3.85156C6.5 4.44531 7.07812 5.01563 7.54688 5.5625C8.01562 6.09375 8.42188 6.60938 8.76562 7.10938C8.92188 7.35938 9 7.70312 9 8.14062V10.1797C9 11.1953 9.29688 12.3203 9.89062 13.5547C10.4844 14.7891 11.4844 16.1484 12.8906 17.6328L15.1641 20.0234L17.3906 17.6328C18.6562 16.2734 19.6172 14.9766 20.2734 13.7422C20.9453 12.5078 21.2812 11.3281 21.2812 10.2031V8.14062C21.2812 7.6875 21.3594 7.34375 21.5156 7.10938C22.1875 6.09375 23.1406 5.00781 24.375 3.85156C24.6094 3.66406 24.8047 3.57031 24.9609 3.57031C25.1484 3.57031 25.3438 3.66406 25.5469 3.85156C26.2031 4.44531 26.7578 5.01563 27.2109 5.5625C27.6797 6.09375 28.0781 6.60938 28.4062 7.10938C28.5625 7.35938 28.6406 7.70312 28.6406 8.14062V10.2031C28.6406 11.9219 28.2656 13.5703 27.5156 15.1484C26.7656 16.7109 25.4922 18.4922 23.6953 20.4922L18.7031 26.0469V36.7578Z" fill="white"/>
</svg>
